<svg width="64" height="64" viewBox="0 0 64 64" xmlns="http://www.w3.org/2000/svg">
  <defs>
    <linearGradient id="pollaField" x1="0" y1="0" x2="0" y2="1">
      <stop offset="0" stop-color="#27AE60"/>
      <stop offset="1" stop-color="#1A6B2F"/>
    </linearGradient>
  </defs>
  <circle cx="32" cy="32" r="31" fill="#D4A017"/>
  <circle cx="32" cy="32" r="27.5" fill="url(#pollaField)"/>
  <g fill="#D4A017">
    <path d="M0,-3 L0.71,-0.97 L2.85,-0.93 L1.14,0.37 L1.76,2.43 L0,1.2 L-1.76,2.43 L-1.14,0.37 L-2.85,-0.93 L-0.71,-0.97 Z" transform="translate(21.5 16.5)"/>
    <path d="M0,-3 L0.71,-0.97 L2.85,-0.93 L1.14,0.37 L1.76,2.43 L0,1.2 L-1.76,2.43 L-1.14,0.37 L-2.85,-0.93 L-0.71,-0.97 Z" transform="translate(32 13)"/>
    <path d="M0,-3 L0.71,-0.97 L2.85,-0.93 L1.14,0.37 L1.76,2.43 L0,1.2 L-1.76,2.43 L-1.14,0.37 L-2.85,-0.93 L-0.71,-0.97 Z" transform="translate(42.5 16.5)"/>
  </g>
  <g>
    <circle cx="32" cy="35" r="13" fill="#ffffff"/>
    <polygon points="32,30 36.76,33.45 34.94,39.05 29.06,39.05 27.24,33.45" fill="#16271c"/>
    <g stroke="#16271c" stroke-width="1.4" stroke-linecap="round">
      <line x1="32" y1="30" x2="32" y2="22"/>
      <line x1="36.76" y1="33.45" x2="44.36" y2="30.98"/>
      <line x1="34.94" y1="39.05" x2="39.64" y2="45.52"/>
      <line x1="29.06" y1="39.05" x2="24.36" y2="45.52"/>
      <line x1="27.24" y1="33.45" x2="19.64" y2="30.98"/>
    </g>
  </g>
</svg>
